<svg xmlns="http://www.w3.org/2000/svg" version="1.1" xmlns:xlink="http://www.w3.org/1999/xlink" xmlns:svgjs="http://svgjs.dev/svgjs" width="1440" height="560" preserveAspectRatio="none" viewBox="0 0 1440 560"><g mask="url(&quot;#SvgjsMask1018&quot;)" fill="none"><rect width="1440" height="560" x="0" y="0" fill="url(&quot;#SvgjsLinearGradient1019&quot;)"></rect><path d="M0 0L583.71 0L0 96.96z" fill="rgba(255, 255, 255, .1)"></path><path d="M0 96.96L583.71 0L1030.74 0L0 298.71999999999997z" fill="rgba(255, 255, 255, .075)"></path><path d="M0 298.71999999999997L1030.74 0L1175.27 0L0 395.34999999999997z" fill="rgba(255, 255, 255, .05)"></path><path d="M0 395.34999999999997L1175.27 0L1187.37 0L0 400.98999999999995z" fill="rgba(255, 255, 255, .025)"></path><path d="M1440 560L1378.13 560L1440 418.26z" fill="rgba(0, 0, 0, .1)"></path><path d="M1440 418.26L1378.13 560L700.5900000000001 560L1440 250.47z" fill="rgba(0, 0, 0, .075)"></path><path d="M1440 250.47000000000003L700.59 560L662.2900000000001 560L1440 172.91000000000003z" fill="rgba(0, 0, 0, .05)"></path><path d="M1440 172.91000000000003L662.2900000000001 560L308.8400000000001 560L1440 86.35000000000002z" fill="rgba(0, 0, 0, .025)"></path></g><defs><mask id="SvgjsMask1018"><rect width="1440" height="560" fill="#ffffff"></rect></mask><linearGradient x1="50%" y1="100%" x2="50%" y2="0%" gradientUnits="userSpaceOnUse" id="SvgjsLinearGradient1019"><stop stop-color="rgba(12, 127, 147, 0.91)" offset="0.48"></stop><stop stop-color="rgba(4, 82, 155, 1)" offset="1"></stop></linearGradient></defs></svg>